# AST/ASF file generated using VICON BodyLanguage
# -----------------------------------------------
:version 1.10
:name VICON
:units
  mass 1.0
  length 0.45
  angle deg
:documentation
   .ast/.asf automatically generated from VICON data using
   VICON BodyBuilder and BodyLanguage model FoxedUp or BRILLIANT.MOD
:root
   order TX TY TZ RX RY RZ
   axis XYZ
   position 0 0 0  
   orientation 0 0 0 
:bonedata
  begin
     id 1 
     name lhipjoint
     direction 0.635376 -0.686425 0.353719 
     length 2.47244 
     axis 0 0 0  XYZ
  end
  begin
     id 2 
     name lfemur
     direction 0.34202 -0.939693 0  
     length 7.25268  
     axis 0 0 20  XYZ
    dof rx ry rz
    limits (-160.0 20.0)
           (-70.0 70.0)
           (-60.0 70.0)
  end
  begin
     id 3 
     name ltibia
     direction 0.34202 -0.939693 0   
     length 7.6767   
     axis 0 0 20   XYZ
    dof rx
    limits (-10.0 170.0)
  end
  begin
     id 4 
     name lfoot
     direction 0.0803374 -0.220725 0.972022   
     length 2.22945   
     axis -90 7.62852e-016 20   XYZ
    dof rx rz
    limits (-45.0 90.0)
           (-70.0 20.0)
  end
  begin
     id 5 
     name ltoes
     direction 1.53579e-011 -4.21994e-011 1   
     length 1.11848   
     axis -90 7.62852e-016 20   XYZ
    dof rx
    limits (-90.0 20.0)
  end
  begin
     id 6 
     name rhipjoint
     direction -0.664428 -0.664335 0.342336   
     length 2.55466  
     axis 0 0 0  XYZ 
  end
  begin
     id 7 
     name rfemur
     direction -0.34202 -0.939693 0   
     length 6.83172   
     axis 0 0 -20   XYZ
    dof rx ry rz
    limits (-160.0 20.0)
           (-70.0 70.0)
           (-70.0 60.0)
  end
  begin
     id 8 
     name rtibia
     direction -0.34202 -0.939693 0   
     length 7.62692   
     axis 0 0 -20   XYZ
    dof rx
    limits (-10.0 170.0)
 end
 begin
     id 9 
     name rfoot
     direction -0.0949276 -0.260811 0.960711   
     length 2.19684  
     axis -90 -7.62852e-016 -20   XYZ
    dof rx rz
    limits (-45.0 90.0)
           (-20.0 70.0)
  end
  begin
     id 10 
     name rtoes
     direction -1.53543e-011 -4.2183e-011 1   
     length 1.09848   
     axis -90 -7.62852e-016 -20   XYZ
    dof rx
    limits (-90.0 20.0)
  end
  begin
     id 11 
     name lowerback
     direction 0.0118782 0.999815 -0.0151555   
     length 2.15772   
     axis 0 0 0   XYZ
    dof rx ry rz
    limits (-20.0 45.0)
           (-30.0 30.0)
           (-30.0 30.0)
  end
  begin
     id 12 
     name upperback
     direction 0.00130825 0.999065 0.0432113   
     length 2.14863   
     axis 0 0 0   XYZ
    dof rx ry rz
    limits (-20.0 45.0)
           (-30.0 30.0)
           (-30.0 30.0)
  end
  begin
     id 13 
     name thorax
     direction -0.00347005 0.998773 0.0494011   
     length 2.14936   
     axis 0 0 0   XYZ
    dof rx ry rz
    limits (-20.0 45.0)
           (-30.0 30.0)
           (-30.0 30.0)
  end
  begin
     id 14 
     name lowerneck
     direction -0.0262159 0.99424 0.103921   
     length 1.69373   
     axis 0 0 0   XYZ
    dof rx ry rz
    limits (-20.0 45.0)
           (-30.0 30.0)
           (-30.0 30.0)
  end
  begin
     id 15 
     name upperneck
     direction 0.0353511 0.977394 -0.20845   
     length 1.70857   
     axis 0 0 0   XYZ
    dof rx ry rz
    limits (-20.0 45.0)
           (-30.0 30.0)
           (-30.0 30.0)
  end
  begin
     id 16
     name head
     direction 0.0139214 0.996594 -0.0812836  
     length 1.72777  
     axis 0 0 0   XYZ
    dof rx ry rz
    limits (-20.0 45.0)
           (-30.0 30.0)
           (-30.0 30.0)
  end
  begin
     id 17 
     name lclavicle
     direction 0.841247 0.537205 -0.0609508  
     length 3.55371  
     axis 0 0 0   XYZ
    dof ry rz
    limits (-20.0 10.0)
           (0.0 20.0)
  end
  begin
     id 18 
     name lhumerus
     direction 1 -4.48964e-011 1.60116e-018   
     length 4.91377   
     axis -180 -30 -90   XYZ
    dof rx ry rz
    limits (-60.0 90.0)
           (-90.0 90.0)
           (-90.0 90.0)
  end
  begin
     id 19
     name lradius
     direction 1 -4.48989e-011 -8.93847e-027   
     length 3.00291   
     axis -180 -30 -90   XYZ
    dof rx
    limits (-10.0 170.0)
  end
  begin
     id 20
     name lwrist
     direction 1 -4.48932e-011 -7.31504e-027   
     length 1.50145   
     axis 5.74121e-015 90 90   XYZ
    dof ry
    limits (-180.0 0.0)
 end
  begin
     id 21 
     name lhand
     direction 1 -4.48971e-011 -1.46301e-026   
     length 0.450922   
     axis 9.33524e-015 90 90   XYZ
    dof rx rz
    limits (-90.0 90.0)
           (-45.0 45.0)
  end
  begin
     id 22 
     name lfingers
     direction 1 -4.49039e-011 -2.92602e-026   
     length 0.363545   
     axis 1.86705e-014 90 90   XYZ
    dof rx
    limits (0.0 90.0)
  end
  begin
     id 23
     name lthumb
     direction 0.707107 -6.34941e-011 0.707107   
     length 0.52198   
     axis -90 45 2.85299e-015   XYZ
    dof rx rz
    limits (-45.0 45.0)
           (-45.0 45.0)
  end
  begin
     id 24 
     name rclavicle
     direction -0.825079 0.56158 -0.0622297   
     length 3.39909  
     axis 0 0 0   XYZ 
    dof ry rz
    limits (-10.0 20.0)
           (-20.0 0.0)
  end
  begin
     id 25 
     name rhumerus
     direction -1 -4.48965e-011 1.61691e-027  
     length 4.86725   
     axis -180 30 90   XYZ
    dof rx ry rz
    limits (-90.0 60.0)
           (-90.0 90.0)
           (-90.0 90.0)
  end
  begin
     id 26 
     name rradius
     direction -1 -4.48964e-011 -2.25776e-027   
     length 3.17144   
     axis -180 30 90   XYZ
    dof rx
    limits (-10.0 170.0)
  end
  begin
     id 27 
     name rwrist
     direction -1 -4.48961e-011 -7.31504e-027   
     length 1.58572   
     axis 5.74121e-015 -90 -90   XYZ
    dof ry
    limits (-180.0 0.0)
  end
  begin
     id 28
     name rhand
     direction -1 -4.49013e-011 -1.46301e-026   
     length 0.419368   
     axis 9.33524e-015 -90 -90   XYZ
    dof rx rz
    limits (-90.0 90.0)
           (-45.0 45.0)
  end
  begin
     id 29
     name rfingers
     direction -1 -4.489e-011 -2.92602e-026   
     length 0.338105   
     axis 1.86705e-014 -90 -90   XYZ
    dof rx
    limits (0.0 90.0)
  end
  begin
     id 30
     name rthumb
     direction -0.707107 -6.35022e-011 0.707107   
     length 0.485453   
     axis -90 -45 -2.85299e-015   XYZ
    dof rx rz
    limits (-45.0 45.0)
           (-45.0 45.0)
  end
:hierarchy
  begin
    root lhipjoint rhipjoint lowerback
    lhipjoint lfemur
    lfemur ltibia
    ltibia lfoot
    lfoot ltoes
    rhipjoint rfemur
    rfemur rtibia
    rtibia rfoot
    rfoot rtoes
    lowerback upperback
    upperback thorax
    thorax lowerneck lclavicle rclavicle
    lowerneck upperneck
    upperneck head
    lclavicle lhumerus
    lhumerus lradius
    lradius lwrist
    lwrist lhand lthumb
    lhand lfingers
    rclavicle rhumerus
    rhumerus rradius
    rradius rwrist
    rwrist rhand rthumb
    rhand rfingers
  end

#!OML:ASF H:\Swim 2\Project 1\Capture day 1\Session 1\male.ASF
:FULLY-SPECIFIED
:DEGREES
1097
root 4.84662 15.066 10.3621 110.373 -78.6076 0.343119
lowerback -24.4829 10.3111 8.72536
upperback -17.0296 11.6339 -15.9949
thorax 0.0411905 4.65255 -19.2112
lowerneck -6.78568 -3.91374 9.28989
upperneck 39.2875 -12.8589 9.04016
head 15.3471 -3.23498 0.309251
rclavicle -6.20208e-014 -6.91771e-014
rhumerus 11.8743 -0.0748532 24.7724
rradius 42.1744
rwrist -50.8651
rhand 34.6532 -6.02739
rfingers 7.12502
rthumb 57.8347 -21.8962
lclavicle -6.20208e-014 -6.91771e-014
lhumerus 52.6763 16.5423 -42.3015
lradius 35.6297
lwrist 47.9262
lhand 10.9357 -6.46082
lfingers 7.12502
lthumb 36.0133 19.8524
rfemur -40.2327 -6.0651 29.8177
rtibia 69.3983
rfoot 23.2988 -2.14008
rtoes 30.2964
lfemur -41.9827 7.04824 -20.2699
ltibia 71.9876
lfoot 27.5757 -3.55301
ltoes 10.2727
1098
root 4.84131 15.0641 10.3588 109.84 -78.6179 0.982168
lowerback -24.1507 10.4078 8.84359
upperback -16.8662 11.8284 -16.1551
thorax 0.213389 4.80042 -19.4266
lowerneck -6.58409 -4.05002 9.38257
upperneck 39.4596 -13.1956 9.31617
head 15.436 -3.31643 0.377965
rclavicle -2.22639e-014 -1.35174e-013
rhumerus 14.3603 -1.98933 23.7131
rradius 41.7618
rwrist -50.371
rhand 36.0028 -6.65946
rfingers 7.12502
rthumb 59.0073 -21.4413
lclavicle -2.22639e-014 -1.35174e-013
lhumerus 56.1654 18.7668 -39.9546
lradius 35.9751
lwrist 47.2881
lhand 11.8649 -6.81813
lfingers 7.12502
lthumb 36.8929 19.274
rfemur -40.1137 -5.74325 29.9829
rtibia 67.3907
rfoot 24.1356 -2.43997
rtoes 30.2292
lfemur -41.9745 6.46923 -20.0848
ltibia 70.3606
lfoot 27.4958 -3.186
ltoes 10.6555
1099
root 4.8326 15.0612 10.3554 109.136 -78.6279 1.78624
lowerback -23.8121 10.4968 8.94663
upperback -16.69 12.0176 -16.3078
thorax 0.390646 4.94877 -19.6271
lowerneck -6.38169 -4.18633 9.46814
upperneck 39.6292 -13.5326 9.60069
head 15.5274 -3.3971 0.452695
rclavicle 1.59028e-014 -2.22639e-014
rhumerus 16.8379 -3.82784 22.405
rradius 41.3673
rwrist -49.5402
rhand 37.2457 -7.2653
rfingers 7.12502
rthumb 60.0754 -20.9662
lclavicle 1.59028e-014 -2.22639e-014
lhumerus 60.001 20.7675 -37.0798
lradius 36.2205
lwrist 46.7535
lhand 12.6514 -6.8929
lfingers 7.12502
lthumb 37.6366 19.0043
rfemur -40.0017 -5.38442 30.1193
rtibia 65.2402
rfoot 25.0903 -2.58944
rtoes 29.737
lfemur -42.0259 5.89891 -19.8932
ltibia 68.6908
lfoot 27.4233 -2.70926
ltoes 11.2073
1100
root 4.82035 15.057 10.3518 108.297 -78.6345 2.71734
lowerback -23.4762 10.5859 9.03879
upperback -16.4995 12.2115 -16.4562
thorax 0.583951 5.10354 -19.8131
lowerneck -6.1858 -4.31974 9.55686
upperneck 39.7909 -13.8653 9.88904
head 15.6191 -3.47418 0.530047
rclavicle 7.95139e-015 4.37326e-014
rhumerus 19.2618 -5.50114 20.9086
rradius 41.0324
rwrist -48.5464
rhand 38.3252 -7.80049
rfingers 7.12502
rthumb 60.9929 -20.4944
lclavicle 7.95139e-015 4.37326e-014
lhumerus 64.1835 22.4567 -33.6809
lradius 36.329
lwrist 46.2644
lhand 13.2516 -6.96951
lfingers 7.12502
lthumb 38.2035 18.7741
rfemur -39.8905 -4.99214 30.2214
rtibia 62.9606
rfoot 26.131 -2.57486
rtoes 28.8537
lfemur -42.133 5.34587 -19.6942
ltibia 66.9901
lfoot 27.3457 -2.20999
ltoes 11.7228
1101
root 4.80515 15.0517 10.3483 107.339 -78.6382 3.75176
lowerback -23.1481 10.6772 9.13222
upperback -16.2919 12.4096 -16.6003
thorax 0.800773 5.26441 -19.9901
lowerneck -5.99319 -4.43077 9.66814
upperneck 39.9313 -14.1582 10.1649
head 15.6986 -3.53378 0.6044
rclavicle 1.74931e-014 -8.82604e-014
rhumerus 21.6131 -6.9714 19.2569
rradius 40.7641
rwrist -47.6061
rhand 39.2235 -8.20874
rfingers 7.12502
rthumb 61.7484 -20.0124
lclavicle 1.74931e-014 -8.82604e-014
lhumerus 68.7231 23.7611 -29.7021
lradius 36.3076
lwrist 45.7365
lhand 13.7427 -7.03557
lfingers 7.12502
lthumb 38.6669 18.5791
rfemur -39.77 -4.57948 30.2814
rtibia 60.5753
rfoot 27.1855 -2.46728
rtoes 27.8512
lfemur -42.2899 4.80979 -19.4907
ltibia 65.2765
lfoot 27.2719 -1.73457
ltoes 12.1054
